<svg xmlns="http://www.w3.org/2000/svg" width="1122" height="794" viewBox="0 0 1122 794" role="img" aria-labelledby="title desc"><title id="title">MySkyParcel Premium Sertifika</title><desc id="desc">Abstract geometric space certificate background</desc><defs><linearGradient id="bg" x1="0" y1="0" x2="1" y2="1"><stop stop-color="#01050e"/><stop offset=".5" stop-color="#09213e"/><stop offset="1" stop-color="#020611"/></linearGradient><linearGradient id="gold"><stop stop-color="#7a5b20"/><stop offset=".25" stop-color="#fff0a8"/><stop offset=".5" stop-color="#c79c42"/><stop offset=".75" stop-color="#fff2b5"/><stop offset="1" stop-color="#72551e"/></linearGradient><radialGradient id="prism"><stop stop-color="#fff" stop-opacity=".7"/><stop offset=".25" stop-color="#73c9ff" stop-opacity=".18"/><stop offset="1" stop-color="#73c9ff" stop-opacity="0"/></radialGradient><filter id="glow"><feGaussianBlur stdDeviation="8"/></filter></defs><rect width="1122" height="794" fill="url(#bg)"/><circle cx="190" cy="170" r="210" fill="url(#prism)"/><circle cx="930" cy="610" r="240" fill="url(#prism)"/><g fill="none" stroke="url(#gold)" stroke-linecap="round"><path d="M-40 690L240 410L520 690L820 350L1160 680" stroke-width="3" opacity=".75"/><path d="M80 720L350 390L610 650L870 250L1100 500" stroke-width="1.5" opacity=".65"/><path d="M160 120L400 300L650 90L900 310L1080 120" stroke-width="2" opacity=".55"/><path d="M310 0L500 180L710 20L910 190" stroke-width="1" opacity=".5"/><path d="M360 120L561 35L760 120L850 350L760 580L561 670L360 580L270 350Z" stroke-width="2" opacity=".65"/><path d="M420 190L561 105L700 190L760 350L700 510L561 595L420 510L360 350Z" stroke-width="1" opacity=".5"/></g><g fill="#fff" opacity=".55"><circle cx="561" cy="35" r="3"/><circle cx="760" cy="120" r="2"/><circle cx="850" cy="350" r="3"/><circle cx="561" cy="670" r="2.5"/><circle cx="270" cy="350" r="2"/></g><g fill="none" stroke="#e2c56c"><rect x="24" y="24" width="1074" height="746" rx="22" stroke-width="3"/><rect x="40" y="40" width="1042" height="714" rx="17" stroke-opacity=".35"/><path d="M70 180V70h110M1052 180V70H942M70 614v110h110M1052 614v-110h-110" stroke-width="2" opacity=".7"/></g><text x="561" y="101" text-anchor="middle" fill="#fff1b0" font-family="Georgia,serif" font-size="30" letter-spacing="7">MY SKY PARCEL</text><text x="561" y="169" text-anchor="middle" fill="#d7b85b" font-family="Arial,sans-serif" font-size="15" letter-spacing="10">PREMIUM COLLECTION</text><text x="561" y="245" text-anchor="middle" fill="#fff2b5" font-family="Georgia,serif" font-size="17" letter-spacing="5">CERTIFICATE OF DIGITAL OWNERSHIP</text><text x="561" y="350" text-anchor="middle" fill="#ffffff" font-family="Georgia,serif" font-size="{{HOLDER_NAME_FONT_SIZE}}" font-style="italic">{{HOLDER_NAME}}</text><path d="M235 380H887" stroke="url(#gold)" stroke-width="2"/><text x="561" y="430" text-anchor="middle" fill="#f0d98e" font-family="monospace" font-size="25" letter-spacing="3">{{PARCEL_CODE}}</text><text x="561" y="468" text-anchor="middle" fill="#c8d0dc" font-family="Arial,sans-serif" font-size="15" letter-spacing="2">{{CITY_NAME}} • PREMIUM</text><text x="561" y="526" text-anchor="middle" fill="#8998aa" font-family="Arial,sans-serif" font-size="10" letter-spacing="3">SERTİFİKA NUMARASI</text><text x="561" y="553" text-anchor="middle" fill="#ffffff" font-family="monospace" font-size="18">{{CERTIFICATE_NUMBER}}</text><text x="86" y="699" fill="#8d9bae" font-family="Arial,sans-serif" font-size="11">DÜZENLENME: {{ISSUE_DATE}}</text><text x="1036" y="699" text-anchor="end" fill="#8d9bae" font-family="monospace" font-size="10">{{FINGERPRINT_SHORT}}</text><rect x="900" y="535" width="140" height="140" rx="10" fill="#fff"/><image x="910" y="545" width="120" height="120" preserveAspectRatio="xMidYMid meet" href="{{QR_IMAGE_URL}}"/><text x="970" y="690" text-anchor="middle" fill="#8d9bae" font-family="Arial,sans-serif" font-size="10">MY SKYPARCEL DOĞRULAMA</text></svg>