<svg xmlns="http://www.w3.org/2000/svg" viewBox="0 0 1600 1067"><defs><linearGradient id="bg" x1="0" y1="0" x2="1" y2="1"><stop stop-color="#020817"/><stop offset=".48" stop-color="#0a2140"/><stop offset="1" stop-color="#030713"/></linearGradient><radialGradient id="halo" cx="50%" cy="42%"><stop stop-color="#3d79b8" stop-opacity=".42"/><stop offset="1" stop-color="#07162b" stop-opacity="0"/></radialGradient><linearGradient id="gold" x1="0" x2="1"><stop stop-color="#9c6e25"/><stop offset=".5" stop-color="#f7d981"/><stop offset="1" stop-color="#b17b27"/></linearGradient><filter id="glow"><feGaussianBlur stdDeviation="10"/></filter></defs><rect width="1600" height="1067" fill="url(#bg)"/><rect width="1600" height="1067" fill="url(#halo)"/><g fill="#fff4c8" opacity=".8"><circle cx="130" cy="150" r="2"/><circle cx="225" cy="240" r="1.5"/><circle cx="380" cy="125" r="2"/><circle cx="1210" cy="135" r="1.5"/><circle cx="1390" cy="230" r="2"/><circle cx="1480" cy="145" r="1.5"/><circle cx="1180" cy="880" r="2"/><circle cx="300" cy="890" r="1.5"/></g><circle cx="1320" cy="260" r="135" fill="none" stroke="#6ea4d5" stroke-width="1" opacity=".2"/><circle cx="1320" cy="260" r="105" fill="none" stroke="#6ea4d5" stroke-width="1" opacity=".12"/><path d="M72 190 Q150 72 268 72 Q188 150 72 190Z M1528 190 Q1450 72 1332 72 Q1412 150 1528 190Z M72 877 Q150 995 268 995 Q188 917 72 877Z M1528 877 Q1450 995 1332 995 Q1412 917 1528 877Z" fill="none" stroke="url(#gold)" stroke-width="2"/><rect x="28" y="28" width="1544" height="1011" rx="24" fill="none" stroke="url(#gold)" stroke-width="7"/><rect x="50" y="50" width="1500" height="967" rx="18" fill="none" stroke="#8e6728" stroke-width="1.5" opacity=".8"/><g transform="translate(800 132)"><circle r="30" fill="#07172d" stroke="url(#gold)" stroke-width="2"/><path d="M-15 8 C-4 -22 17 -24 23 -8 C12 -15 2 -9 -2 4 C5 0 13 3 16 11 C7 8 -2 13 -7 23 C-13 20 -17 14 -15 8Z" fill="url(#gold)"/><path d="M26 -24 l3 8 8 3-8 3-3 8-3-8-8-3 8-3z" fill="#f7d981"/></g><text x="800" y="210" text-anchor="middle" fill="#f7d981" font-family="Georgia,serif" font-size="30" letter-spacing="10">MYSKYPARCEL</text><text x="800" y="330" text-anchor="middle" fill="url(#gold)" font-family="Georgia,serif" font-size="70" font-weight="700" letter-spacing="4">DİJİTAL GÖKYÜZÜ</text><text x="800" y="405" text-anchor="middle" fill="#f8f4e8" font-family="Georgia,serif" font-size="43" letter-spacing="10">SERTİFİKASI</text><g stroke="url(#gold)" fill="none"><path d="M420 450 H680"/><path d="M920 450 H1180"/></g><path d="M800 439 l7 11 -7 11 -7-11z" fill="#f7d981"/><text x="800" y="515" text-anchor="middle" fill="#b9c8dc" font-family="Arial,sans-serif" font-size="19" letter-spacing="3">GÖKYÜZÜNDEKİ YERİNİZİN SEMBOLİK KOLEKSİYON BELGESİ</text><rect x="370" y="550" width="860" height="145" rx="16" fill="#07182f" fill-opacity=".48" stroke="url(#gold)" stroke-width="2"/><rect x="385" y="565" width="830" height="115" rx="11" fill="none" stroke="#f7d981" stroke-opacity=".18"/><text x="800" y="638" text-anchor="middle" fill="#e9eef5" font-family="Georgia,serif" font-size="20" letter-spacing="4">KİŞİSELLEŞTİRİLEBİLİR SERTİFİKA ALANI</text><text x="800" y="765" text-anchor="middle" fill="#d1d9e5" font-family="Arial,sans-serif" font-size="18" letter-spacing="3">PARSEL • SERTİFİKA NO • TARİH</text><text x="800" y="920" text-anchor="middle" fill="#7f95af" font-family="Arial,sans-serif" font-size="15" letter-spacing="4">DİJİTAL KOLEKSİYON • SEMBOLİK GÖKYÜZÜ PARSELİ</text><text x="800" y="958" text-anchor="middle" fill="#f7d981" font-family="Georgia,serif" font-size="13" letter-spacing="2">MY SKY • MY PARCEL • MY PLACE</text></svg>